<svg xmlns="http://www.w3.org/2000/svg" viewBox="0 0 98 98"><defs><style>.cls-1{fill:#eeebee}</style></defs><title>vcspull</title><g id="Layer_2" data-name="Layer 2"><g id="Layer_1-2" data-name="Layer 1"><path class="cls-1" d="M49,0A49,49,0,1,0,98,49,49,49,0,0,0,49,0Zm-.37,85.75A36.76,36.76,0,0,1,12.45,55.47H4.92L15,42.53,25.57,55.47H17.86a31.42,31.42,0,0,0,59.85,5.42h5.67A36.74,36.74,0,0,1,48.62,85.75ZM82.5,55.47,72.43,42.53h6.94A31.41,31.41,0,0,0,19.58,37H13.92a36.73,36.73,0,0,1,70.87,5.54h8.3Z"/></g></g></svg>
