<?xml version="1.0" encoding="UTF-8" standalone="no"?>
<svg
   viewBox="0 0 98 98"
   version="1.1"
   id="svg353"
   sodipodi:docname="vcspull - dark - filled.svg"
   inkscape:version="1.1.2 (0a00cf5339, 2022-02-04, custom)"
   xmlns:inkscape="http://www.inkscape.org/namespaces/inkscape"
   xmlns:sodipodi="http://sodipodi.sourceforge.net/DTD/sodipodi-0.dtd"
   xmlns="http://www.w3.org/2000/svg"
   xmlns:svg="http://www.w3.org/2000/svg"
   xmlns:rdf="http://www.w3.org/1999/02/22-rdf-syntax-ns#"
   xmlns:cc="http://creativecommons.org/ns#"
   xmlns:dc="http://purl.org/dc/elements/1.1/">
  <sodipodi:namedview
     id="namedview355"
     pagecolor="#ffffff"
     bordercolor="#666666"
     borderopacity="1.0"
     inkscape:pageshadow="2"
     inkscape:pageopacity="0.0"
     inkscape:pagecheckerboard="true"
     showgrid="false"
     inkscape:zoom="8.9081633"
     inkscape:cx="49.112256"
     inkscape:cy="48.943872"
     inkscape:window-width="1586"
     inkscape:window-height="997"
     inkscape:window-x="1214"
     inkscape:window-y="466"
     inkscape:window-maximized="0"
     inkscape:current-layer="Layer_1-2" />
  <defs
     id="defs345">
    <style
       id="style343">.cls-1{fill:#221f1f;}</style>
  </defs>
  <title
     id="title347">vcspull</title>
  <g
     id="Layer_2"
     data-name="Layer 2">
    <g
       id="Layer_1-2"
       data-name="Layer 1">
      <path
         class="cls-1"
         d="M49,0A49,49,0,1,0,98,49,49,49,0,0,0,49,0Zm-.37,85.75A36.76,36.76,0,0,1,12.45,55.47H4.92L15,42.53,25.57,55.47H17.86a31.42,31.42,0,0,0,59.85,5.42h5.67A36.74,36.74,0,0,1,48.62,85.75ZM82.5,55.47,72.43,42.53h6.94A31.41,31.41,0,0,0,19.58,37H13.92a36.73,36.73,0,0,1,70.87,5.54h8.3Z"
         id="path349"
         style="fill:#ffffff;fill-opacity:1" />
      <path
         style="fill:#221f1f;stroke-width:0.112257;fill-opacity:1"
         d="m 77.63099,49.101473 c -3.606855,-4.63391 -4.551952,-5.915809 -4.551952,-6.174112 v -0.325986 h 3.15593 3.155931 l -0.07598,-0.506674 C 79.273129,41.816031 79.064861,40.97746 78.852101,40.23121 77.386605,35.091026 74.619362,30.435129 70.73694,26.57742 63.143728,19.032541 52.007776,15.879582 41.534937,18.309361 32.278159,20.457004 24.551087,26.5962 20.393956,35.105973 l -0.917438,1.878024 -2.666094,0.0023 c -3.129637,0.0027 -2.906527,0.163799 -2.208713,-1.595126 4.262595,-10.744392 13.587925,-18.953272 24.836783,-21.863265 3.249219,-0.840548 5.76244,-1.155354 9.224736,-1.155489 6.705799,-2.63e-4 12.944382,1.721776 18.797519,5.188687 7.251767,4.295342 12.989378,11.350109 15.812848,19.442924 0.365364,1.047229 1.150503,3.976952 1.432357,5.344795 l 0.05205,0.252578 h 3.98297 c 3.112162,0 3.982714,0.03068 3.9818,0.14032 -6.74e-4,0.07718 -2.225172,2.855527 -4.943395,6.174113 -4.471446,5.459035 -4.973384,6.033791 -5.269329,6.033791 -0.298866,0 -0.720082,-0.504877 -4.879056,-5.848126 z"
         id="path462" />
      <path
         style="fill:#221f1f;stroke-width:0.112257;fill-opacity:1"
         d="M 45.842636,85.596654 C 38.037124,84.938698 30.852377,81.969895 24.864834,76.928439 22.745756,75.144194 20.178372,72.319487 18.509254,69.935853 15.914964,66.231 13.773297,61.361742 12.85286,57.075576 12.687941,56.307606 12.533775,55.616123 12.510268,55.538946 12.477273,55.430622 11.673199,55.398625 8.9840501,55.398625 H 5.5005727 v -0.280017 c 0,-0.405667 9.1259923,-12.110988 9.4790933,-12.15822 0.212724,-0.02845 1.048294,0.939006 5.214569,6.037658 2.728689,3.339349 4.989664,6.145576 5.024386,6.236061 0.05467,0.142479 -0.434749,0.164518 -3.653346,0.164518 -3.315686,0 -3.716478,0.01917 -3.716478,0.177746 0,0.294335 0.433094,1.932634 0.85812,3.24608 1.071101,3.309996 2.771146,6.543607 4.943773,9.40342 1.093413,1.439252 4.12621,4.497293 5.536022,5.582105 7.098454,5.462061 15.817633,7.694503 24.51213,6.276039 C 64.024794,78.399387 72.9476,71.591473 77.225035,62.134021 l 0.533102,-1.178695 2.780899,-0.03005 c 2.621162,-0.02833 2.776278,-0.01865 2.700469,0.168385 -0.04424,0.109141 -0.171516,0.451016 -0.282843,0.759721 -0.517471,1.434927 -1.411024,3.384057 -2.206638,4.813401 -5.871041,10.547486 -16.173822,17.416934 -28.213942,18.811832 -1.447156,0.16766 -5.29897,0.235588 -6.693446,0.118042 z"
         id="path501" />
    </g>
  </g>
  <metadata
     id="metadata357">
    <rdf:RDF>
      <cc:Work
         rdf:about="">
        <dc:title>vcspull</dc:title>
      </cc:Work>
    </rdf:RDF>
  </metadata>
</svg>
